# xmcd
#
# Track frame offsets:
#	150
#	15450
#	29865
#	42640
#	59061
#	74679
#	88529
#	107553
#	122516
#	137006
#
# Disc length: 2014 seconds
#
# Revision: 1
# Processed by: cddbd v1.5.2PL0 Copyright (c) Steve Scherf et al.
# Submitted via: audiograbber 1.83.01
#
DISCID=9207dc0a
DTITLE=George Jones - The Gospel Set
DYEAR=2003
DGENRE=Gospel
TTITLE0=Amazing Grace
TTITLE1=It Is No Secret
TTITLE2=Swing Low, Sweet Chariot
TTITLE3=Lonesome Vally
TTITLE4=In The Garden
TTITLE5=Leaning On The Everlasting Arms
TTITLE6=What A Friend  We Have In Jesus
TTITLE7=If I Could Hear My Mother Pray Again
TTITLE8=The Old Rugged Cross
TTITLE9=Softly And Tenderly
EXTD=
EXTT0=
EXTT1=
EXTT2=
EXTT3=
EXTT4=
EXTT5=
EXTT6=
EXTT7=
EXTT8=
EXTT9=
PLAYORDER=
